HIERARCHY
ROOT Hips
{
	OFFSET 0.00000 0.00000 0.00000
	CHANNELS 6 Xposition Yposition Zposition Yrotation Zrotation Xrotation 
	JOINT Lumbar
	{
		OFFSET 0 0 0
		CHANNELS 3 Zrotation Xrotation Yrotation
		JOINT Neck
		{
			OFFSET 0.00 0.2701 0.00
			CHANNELS 3 Zrotation Xrotation Yrotation
			End Site
			{
				OFFSET 0.00 0.1379 0.00
			}
		}
		JOINT RightShoulder
		{
			OFFSET 0.0119 0.2289 0.1181
			CHANNELS 3 Zrotation Xrotation Yrotation
			JOINT RightElbow
			{
				OFFSET 0.00 -0.1475 0.00
				CHANNELS 2 Zrotation Yrotation
				JOINT RightWrist
				{
					OFFSET 0.00 -0.1605 0.00
					CHANNELS 2 Zrotation Xrotation
					End Site
					{
						OFFSET 0.0040 -0.1068 0.0006
					}
				}
			}
		}
		JOINT LeftShoulder
		{
			OFFSET 0.0119 0.2289 -0.1181
			CHANNELS 3 Zrotation Xrotation Yrotation
			JOINT LeftElbow
			{
				OFFSET 0.00 -0.1475 0.00
				CHANNELS 2 Zrotation Yrotation
				JOINT LeftWrist
				{
					OFFSET 0.00 -0.1605 0.00
					CHANNELS 2 Zrotation Xrotation
					End Site
					{
						OFFSET 0.0040 -0.1068 -0.0006
					}
				}
			}
		}
	}
	JOINT RightHip
	{
		OFFSET 0.0316 -0.0424 0.0458
		CHANNELS 3 Zrotation Xrotation Yrotation
		JOINT RightKnee
		{
			OFFSET 0.00 -0.2438 0.00
			CHANNELS 1 Zrotation
			JOINT RightAnkle
			{
				OFFSET 0.00 -0.2449 0.00
				CHANNELS 3 Zrotation Xrotation Yrotation
				End Site
				{
					OFFSET 0.1237 -0.0542 0.0051
				}
			}
		}
	}
	JOINT LeftHip
	{
		OFFSET 0.0316 -0.0424 -0.0458
		CHANNELS 3 Zrotation Xrotation Yrotation
		JOINT LeftKnee
		{
			OFFSET 0.00 -0.2438 0.00
			CHANNELS 1 Zrotation
			JOINT LeftAnkle
			{
				OFFSET 0.00 -0.2449 0.00
				CHANNELS 3 Zrotation Xrotation Yrotation
				End Site
				{
					OFFSET 0.1237 -0.0542 -0.0051
				}
			}
		}
	}
}
MOTION
Frames: 17
Frame Time: 0.02
-1.53304 0.00579 0.09062 898.89607 -23.89209 0.05567 30.66857 1.10693 -9.27267 -12.39841 7.9028 -0.83079 4.13113 -12.67022 2.93464 119.95963 82.10531 -0.96906 3.45026 -19.4536 7.70234 -0.91452 114.26141 -85.63806 1.72114 0.29847 1.21883 -2.35644 10.75195 0.47736 3.02122 -16.07207 -8.76589 1.40861 2.85807 0.33118 0.48747 4.30846 9.81011 4.98512
-1.53304 0.00582 0.09076 898.79148 -23.90513 0.05649 30.76505 1.07459 -9.34928 -12.44044 7.94567 -0.83079 5.86396 -12.26463 4.2281 122.88655 82.21853 -0.50082 4.24523 -19.637 7.48936 -0.68419 114.49056 -90.19962 2.92131 -0.6591 1.25307 -2.38851 10.81755 0.47768 3.10765 -15.92891 -8.64814 1.39657 2.83624 0.38586 0.48736 4.29392 9.8778 5.00603
-1.53302 0.00586 0.09086 898.67424 -23.91535 0.04208 30.85471 1.02771 -9.38749 -12.4555 8.0594 -0.83079 7.84077 -11.79451 5.55956 125.46609 82.35919 0.05063 5.01609 -19.7635 7.20013 -0.45946 114.71499 -95.952 4.41375 -1.87666 1.28749 -2.40924 10.90522 0.47808 3.20257 -15.78277 -8.53532 1.38079 2.82711 0.45744 0.48726 4.28452 9.94848 5.02556
-1.53301 0.00589 0.09098 898.56326 -23.9259 0.03371 30.94623 0.98782 -9.44134 -12.48029 8.14254 -0.83079 9.70028 -11.3487 6.86322 128.15833 82.48296 0.5693 5.76784 -19.9101 6.9513 -0.24079 114.94024 -100.99319 5.74642 -2.94303 1.32064 -2.43449 10.98313 0.47844 3.29245 -15.64008 -8.42178 1.36597 2.81266 0.52202 0.48715 4.27385 10.01574 5.04534
-1.533 0.00593 0.09109 898.44987 -23.94161 0.02889 31.04329 0.94605 -9.50368 -12.51527 8.2208 -0.83079 11.60456 -10.92039 8.2165 131.0491 82.6134 1.06988 6.65425 -20.08238 6.67682 0.01649 115.17187 -106.76291 7.19833 -4.15929 1.36036 -2.46213 11.05977 0.47884 3.38848 -15.48802 -8.30078 1.35564 2.79665 0.58316 0.48707 4.25881 10.09294 5.06736
-1.53298 0.00596 0.09122 898.33883 -23.9454 0.01324 31.12693 0.90491 -9.53864 -12.52291 8.32506 -0.83079 13.46359 -10.44256 9.47208 133.43865 82.75192 1.62626 7.25119 -20.18711 6.43821 0.19072 115.38868 -111.29813 8.46913 -5.12183 1.38578 -2.48236 11.14429 0.47916 3.47307 -15.35545 -8.19711 1.33456 2.78662 0.65545 0.48693 4.25408 10.14967 5.08408
-1.53293 0.006 0.09141 898.23491 -23.91776 -0.02986 31.17689 0.86827 -9.51057 -12.46042 8.48671 -0.83079 15.17606 -9.83392 10.46523 134.55546 82.76699 2.32106 7.0587 -20.11933 6.31705 0.14216 115.56703 -112.07892 9.16861 -5.3107 1.3724 -2.48304 11.24599 0.47929 3.52606 -15.27193 -8.13777 1.28479 2.79193 0.75704 0.48662 4.27627 10.14886 5.0871
-1.53288 0.00605 0.09163 898.1346 -23.87793 -0.08302 31.21323 0.83293 -9.45575 -12.37164 8.6712 -0.83079 16.8249 -9.18024 11.35486 135.17409 82.81148 3.06752 6.57449 -19.98532 6.23491 0.009 115.73018 -111.58378 9.6747 -5.23539 1.34426 -2.47703 11.35476 0.47933 3.56655 -15.20947 -8.09655 1.22421 2.80244 0.86856 0.48625 4.3088 10.12698 5.08461
-1.53283 0.00609 0.09184 898.03379 -23.84299 -0.13087 31.25466 0.79755 -9.41079 -12.29577 8.84323 -0.83079 18.47659 -8.5536 12.28078 136.00295 82.93823 3.78733 6.2194 -19.88138 6.13523 -0.08909 115.89949 -111.70647 10.26863 -5.28563 1.32219 -2.47532 11.45979 0.47941 3.61149 -15.14054 -8.0483 1.16824 2.80923 0.97437 0.48591 4.33666 10.11508 5.0842
-1.53278 0.00613 0.09201 897.92629 -23.81066 -0.1827 31.30055 0.75936 -9.37355 -12.21485 9.02702 -0.83079 20.24936 -7.89554 13.25455 136.88848 82.67722 4.52495 5.87578 -19.77559 6.03188 -0.17317 116.07226 -111.71197 10.87393 -5.32201 1.30291 -2.4679 11.56779 0.47952 3.66262 -15.0571 -7.9939 1.11311 2.8221 1.08718 0.48554 4.36417 10.10261 5.08566
-1.53272 0.00617 0.09227 897.83556 -23.77013 -0.22802 31.33397 0.72751 -9.31519 -12.1386 9.19021 -0.83079 21.74877 -7.29479 14.10225 137.54165 83.21166 5.23482 5.44233 -19.65868 5.94664 -0.30635 116.23369 -111.64134 11.40469 -5.32102 1.27423 -2.47095 11.67105 0.47952 3.69691 -15.01057 -7.95807 1.05412 2.82353 1.18581 0.48523 4.3953 10.08499 5.08179
-1.53264 0.00618 0.09271 897.77568 -23.70888 -0.25617 31.33647 0.71277 -9.19861 -12.08156 9.2956 -0.83079 22.53117 -6.84926 14.63769 137.68028 86.09834 5.87074 4.80527 -19.52704 5.9009 -0.55536 116.37246 -111.67979 11.78476 -5.27999 1.22351 -2.50432 11.76151 0.47936 3.69272 -15.05016 -7.95826 0.98361 2.79116 1.25662 0.48509 4.42955 10.07008 5.06595
-1.53255 0.00619 0.09323 897.73605 -23.6399 -0.27667 31.32682 0.70437 -9.06325 -12.0303 9.37818 -0.83079 23.03527 -6.46591 15.04752 137.60292 89.7547 6.47377 4.09276 -19.38669 5.87283 -0.85073 116.49942 -111.6781 12.09362 -5.20925 1.16362 -2.54844 11.84828 0.47904 3.66953 -15.13045 -7.97999 0.91026 2.74744 1.30926 0.48501 4.46782 10.04907 5.04476
-1.53245 0.00619 0.09372 897.69585 -23.57529 -0.29854 31.32276 0.69323 -8.94071 -11.97659 9.46789 -0.83079 23.65083 -6.06365 15.50794 137.62294 92.9508 7.08122 3.43285 -19.2509 5.83743 -1.12411 116.62859 -111.68433 12.42838 -5.15197 1.10794 -2.58799 11.93301 0.47874 3.65364 -15.19621 -7.99705 0.84051 2.7092 1.3623 0.48493 4.50714 10.02235 5.02498
-1.53239 0.00621 0.09418 897.61637 -23.50708 -0.32992 31.31827 0.68176 -8.79847 -11.92113 9.57241 -0.83079 24.32753 -5.62037 15.99277 137.62912 96.61139 7.73447 2.68641 -19.1107 5.79948 -1.404 116.77062 -111.69121 12.78358 -5.08649 1.05222 -2.62648 12.0263 0.47877 3.64911 -15.23659 -7.98708 0.76063 2.6689 1.45267 0.48477 4.53491 10.02829 5.00897
-1.53225 0.00619 0.09473 897.62717 -23.44414 -0.3392 31.31154 0.67216 -8.69396 -11.8711 9.63998 -0.83079 24.81185 -5.27782 16.39756 137.6188 99.49062 8.28446 2.10485 -18.97788 5.77167 -1.68066 116.88318 -111.70267 13.08214 -5.03357 0.99378 -2.6692 12.11009 0.47797 3.60881 -15.35098 -8.04587 0.70131 2.63127 1.45607 0.48478 4.58728 9.96807 4.98436
-1.53191 0.00605 0.09556 897.85176 -23.40247 -0.29232 31.30559 0.66904 -8.69138 -11.83432 9.61378 -0.83079 24.82932 -5.19975 16.61782 137.62299 99.9916 8.55101 2.00952 -18.87309 5.75774 -1.93307 116.91789 -111.74954 13.23817 -5.03109 0.93722 -2.72673 12.08653 0.47555 3.54679 -15.55166 -8.21915 0.70004 2.5945 1.2634 0.48519 4.70869 9.70076 4.93356
